<svg width="60" height="60" viewBox="0 0 60 60" fill="none" xmlns="http://www.w3.org/2000/svg">
<rect width="60" height="60" rx="8" fill="#0F172A"/>
<path d="M6.80966 23.9545V19.1818H25.7727V23.9545H19.2102V41H13.3722V23.9545H6.80966ZM32.2686 31.7955V41H26.388V24.6364H31.9703V27.7472H32.1408C32.4959 26.7102 33.1209 25.897 34.0158 25.3075C34.9178 24.718 35.9689 24.4233 37.1692 24.4233C38.3269 24.4233 39.3319 24.6896 40.1841 25.2223C41.0435 25.7479 41.7076 26.4723 42.1763 27.3956C42.6522 28.3189 42.8865 29.3736 42.8794 30.5597V41H36.9988V31.7955C37.0059 30.9858 36.7999 30.3501 36.3809 29.8885C35.9689 29.4268 35.3936 29.196 34.655 29.196C34.1721 29.196 33.7495 29.3026 33.3873 29.5156C33.0321 29.7216 32.7587 30.0199 32.5669 30.4105C32.3752 30.794 32.2757 31.2557 32.2686 31.7955Z" fill="#60A5FA"/>
<path d="M48.9785 41.3409C48.1547 41.3409 47.448 41.0533 46.8585 40.478C46.2761 39.8956 45.9885 39.1889 45.9956 38.358C45.9885 37.5483 46.2761 36.8558 46.8585 36.2805C47.448 35.7053 48.1547 35.4176 48.9785 35.4176C49.7598 35.4176 50.4487 35.7053 51.0453 36.2805C51.649 36.8558 51.9544 37.5483 51.9615 38.358C51.9544 38.9119 51.8088 39.4162 51.5247 39.8707C51.2477 40.3182 50.8855 40.6768 50.438 40.9467C49.9906 41.2095 49.5041 41.3409 48.9785 41.3409Z" fill="white"/>
</svg>
